<?xml version="1.0" encoding="UTF-8"?>
<svg width="30px" height="40px" viewBox="0 0 30 40" version="1.1" xmlns="http://www.w3.org/2000/svg" xmlns:xlink="http://www.w3.org/1999/xlink">
    <title>simbolo PATCHAI</title>
    <defs>
        <linearGradient x1="50%" y1="0%" x2="50%" y2="50%" id="linearGradient-1">
            <stop stop-color="#14A032" offset="0%"></stop>
            <stop stop-color="#6BAF26" offset="100%"></stop>
        </linearGradient>
    </defs>
    <g id="Symbols" stroke="none" stroke-width="1" fill="none" fill-rule="evenodd">
        <g id="nav/main/enable" transform="translate(-173.000000, -23.000000)">
            <g id="Group" transform="translate(173.000000, 23.000000)">
                <g id="Group" transform="translate(-0.000000, 0.000000)">
                    <path d="M-7.40148683e-15,29.9041866 L8.21491228,39.5236045 C8.22169059,39.5309809 8.22926635,39.5363636 8.23604466,39.5433413 C8.2673445,39.5778309 8.30143541,39.6091308 8.33732057,39.6386364 C8.35486443,39.6533892 8.37181021,39.6689394 8.38975279,39.6822967 C8.42882775,39.710008 8.46989633,39.733134 8.51216108,39.7554625 C8.53070175,39.7648325 8.54784689,39.7763955 8.56658692,39.7849681 C8.61443381,39.8061005 8.66507177,39.8214514 8.71610845,39.8352073 C8.73185805,39.8393939 8.74621212,39.8461722 8.76236045,39.8495614 C8.82954545,39.8641148 8.89952153,39.872488 8.97129187,39.872488 L8.97169059,39.872488 C9.52192982,39.872488 9.96830144,39.4263158 9.96830144,38.8754785 L9.96830144,29.9041866 L-7.40148683e-15,29.9041866 Z" id="Fill-63" fill="#14A032"></path>
                    <path d="M19.9363038,16.9457735 C18.8352273,16.9457735 17.9426834,16.0528309 17.9426834,14.9523525 C17.9426834,13.8508772 18.8352273,12.9583333 19.9363038,12.9583333 C21.0373804,12.9583333 21.9299242,13.8508772 21.9299242,14.9523525 C21.9299242,16.0528309 21.0373804,16.9457735 19.9363038,16.9457735 M9.96800239,16.9457735 C8.86692584,16.9457735 7.97458134,16.0528309 7.97458134,14.9523525 C7.97458134,13.8508772 8.86692584,12.9583333 9.96800239,12.9583333 C11.0694777,12.9583333 11.9616228,13.8508772 11.9616228,14.9523525 C11.9616228,16.0528309 11.0694777,16.9457735 9.96800239,16.9457735 M14.9522528,8.8817842e-15 L4.98415072,8.8817842e-15 C2.23135965,8.8817842e-15 9.96810208e-05,2.23125997 9.96810208e-05,4.98405104 L9.96810208e-05,29.9041069 L14.9522528,29.9041069 C23.2102273,29.9041069 29.9046053,23.2097289 29.9046053,14.9523525 C29.9046053,6.69437799 23.2102273,8.8817842e-15 14.9522528,8.8817842e-15" id="Fill-64" fill="url(#linearGradient-1)"></path>
                </g>
            </g>
        </g>
    </g>
</svg>